<?xml version="1.0" standalone="no"?>
<!DOCTYPE svg PUBLIC "-//W3C//DTD SVG 20010904//EN"
 "http://www.w3.org/TR/2001/REC-SVG-20010904/DTD/svg10.dtd">
<svg version="1.0" xmlns="http://www.w3.org/2000/svg"
 width="252.000000pt" height="252.000000pt" viewBox="0 0 252.000000 252.000000"
 preserveAspectRatio="xMidYMid meet">
<metadata>
Created by potrace 1.14, written by Peter Selinger 2001-2017
</metadata>
<g transform="translate(0.000000,252.000000) scale(0.100000,-0.100000)"
fill="#000000" stroke="none">
<path d="M1221 1821 c-22 -23 -43 -41 -46 -41 -10 0 -35 -28 -35 -39 0 -6 -3
-11 -7 -11 -5 0 -17 -13 -28 -29 -10 -16 -23 -27 -29 -24 -5 3 -6 1 -3 -4 4
-6 0 -16 -8 -23 -8 -7 -15 -18 -15 -25 0 -7 -11 -20 -25 -29 -14 -9 -24 -22
-22 -28 1 -7 -7 -17 -19 -22 -11 -5 -26 -23 -32 -39 -6 -16 -16 -26 -21 -22
-6 3 -11 -1 -11 -9 0 -9 -4 -16 -9 -16 -5 0 -13 -9 -16 -20 -4 -11 -11 -18
-16 -15 -5 4 -9 -4 -9 -17 0 -18 -2 -20 -10 -8 -9 13 -10 13 -11 0 -2 -33 -10
-65 -19 -74 -6 -6 -10 -18 -10 -29 0 -10 -4 -16 -9 -13 -4 3 -13 -13 -20 -34
-7 -23 -18 -40 -26 -40 -8 0 -15 -7 -15 -16 0 -9 -6 -14 -12 -12 -12 4 -38
-33 -38 -55 0 -15 79 -87 95 -87 8 0 28 -14 45 -30 17 -17 36 -27 42 -24 7 4
8 2 4 -4 -4 -7 -2 -12 3 -12 6 0 11 -7 11 -15 0 -8 6 -15 13 -15 8 0 24 -11
37 -25 13 -14 29 -25 37 -25 7 0 13 -4 13 -10 0 -5 16 -16 35 -24 19 -8 34
-21 33 -28 -2 -6 2 -12 7 -13 16 -1 115 -82 108 -89 -4 -3 -1 -6 5 -6 14 0 52
-36 52 -49 0 -5 14 -14 31 -20 21 -7 28 -15 23 -23 -5 -8 -1 -7 11 2 11 9 16
10 11 3 -5 -9 2 -13 24 -13 17 0 29 4 26 9 -3 5 8 14 24 20 17 5 33 16 36 24
3 8 23 22 44 32 22 10 37 21 35 25 -3 4 16 15 41 25 25 9 43 20 39 23 -8 8 55
33 66 26 5 -3 9 4 9 16 0 12 5 18 10 15 6 -3 10 -1 10 4 0 6 5 11 10 11 6 0
25 14 43 30 75 70 85 78 90 73 3 -3 12 4 19 16 7 12 16 21 21 21 9 0 22 10 78
60 40 36 50 66 24 76 -8 4 -15 14 -15 25 0 10 -8 24 -18 31 -10 7 -26 30 -36
51 -9 20 -21 35 -26 32 -4 -3 -11 3 -15 13 -3 9 -5 18 -3 19 2 1 -10 13 -27
27 -16 14 -26 26 -22 26 4 0 2 6 -5 14 -7 8 -16 12 -20 9 -4 -2 -5 3 -2 12 5
11 0 18 -15 22 -11 3 -18 10 -15 15 3 5 -4 12 -16 15 -16 4 -18 8 -8 14 10 7
9 9 -4 9 -12 0 -15 5 -11 17 4 11 3 14 -5 9 -7 -4 -12 -2 -12 4 0 6 -4 9 -9 6
-10 -6 -34 18 -26 26 3 2 -6 11 -20 18 -14 7 -25 22 -25 33 0 11 -3 18 -6 14
-8 -7 -34 17 -34 32 0 6 -4 11 -10 11 -14 0 -50 37 -42 44 3 3 -2 6 -11 6 -9
0 -17 4 -17 9 0 5 -18 27 -40 50 -22 22 -40 47 -40 54 0 9 -3 9 -9 -1 -6 -10
-10 -7 -15 12 -3 14 -11 26 -17 26 -6 0 -7 6 -3 13 5 7 0 6 -11 -3 -11 -9 -16
-10 -11 -2 5 8 0 12 -16 12 -13 0 -33 3 -45 6 -17 5 -31 -4 -62 -35z m37 -103
c1 -7 3 -216 5 -465 l2 -451 -26 13 c-14 8 -31 21 -38 29 -8 9 -19 16 -27 16
-7 0 -18 8 -23 19 -6 10 -21 21 -34 25 -29 7 -103 65 -99 77 1 5 -5 9 -13 9
-8 0 -15 5 -15 11 0 16 -28 40 -49 42 -11 0 -18 4 -15 8 2 4 -10 12 -26 19
-17 7 -30 18 -30 25 0 6 -11 18 -25 25 -28 15 -34 50 -9 50 8 0 12 5 9 10 -3
6 -1 10 5 10 6 0 18 7 26 15 9 8 11 15 5 15 -6 0 -3 9 7 19 44 48 76 86 74 88
-6 8 13 33 25 33 8 0 12 4 9 8 -3 5 9 25 25 45 20 24 24 35 13 30 -9 -3 0 10
20 30 20 20 36 41 36 47 0 15 37 49 45 42 4 -4 5 -2 3 4 -1 6 13 31 32 55 19
24 35 46 36 49 0 3 4 13 9 23 6 15 10 16 16 5 6 -9 9 -7 9 10 0 23 15 31 18
10z"/>
</g>
</svg>
